<svg width="250" height="60" viewBox="0 0 250 60" fill="none" xmlns="http://www.w3.org/2000/svg">
<g clip-path="url(#clip0_42_16)">
<rect width="250" height="60" fill="white"/>
<path d="M77.4 8.125C79.8833 8.125 81.7667 8.81667 83.05 10.2C84.35 11.5833 85 13.7083 85 16.575C85 19.425 84.35 21.5417 83.05 22.925C81.7667 24.3083 79.8833 25 77.4 25H71.45C70.5167 25 70.05 24.5417 70.05 23.625V9.5C70.05 8.58333 70.5167 8.125 71.45 8.125H77.4ZM73 21.75C73 21.95 73.1083 22.05 73.325 22.05H77.4C79.0333 22.05 80.2167 21.6167 80.95 20.75C81.6833 19.8833 82.05 18.4833 82.05 16.55C82.05 14.6167 81.6833 13.225 80.95 12.375C80.2333 11.5083 79.05 11.075 77.4 11.075H73.325C73.1083 11.075 73 11.175 73 11.375V21.75ZM96.9326 11.8C98.4993 11.8 99.6326 12.1583 100.333 12.875C101.033 13.575 101.383 14.5667 101.383 15.85C101.383 17.0667 101.041 18.0083 100.358 18.675C99.6743 19.325 98.5243 19.65 96.9076 19.65H90.6326V20.6C90.6326 21.1333 90.7826 21.575 91.0826 21.925C91.3993 22.2583 91.9243 22.425 92.6576 22.425H100.733V25H92.6576C91.8243 25 91.116 24.8917 90.5326 24.675C89.966 24.4583 89.491 24.1583 89.1076 23.775C88.741 23.375 88.4743 22.9167 88.3076 22.4C88.141 21.8667 88.0576 21.2833 88.0576 20.65V16.15C88.0576 15.5333 88.141 14.9583 88.3076 14.425C88.4743 13.8917 88.741 13.4333 89.1076 13.05C89.491 12.65 89.966 12.3417 90.5326 12.125C91.116 11.9083 91.8243 11.8 92.6576 11.8H96.9326ZM90.6326 17.575H96.8326C97.5493 17.575 98.0493 17.4333 98.3326 17.15C98.6326 16.8667 98.7826 16.4833 98.7826 16C98.7826 15.5 98.6326 15.1 98.3326 14.8C98.0326 14.5 97.5576 14.35 96.9076 14.35H92.6576C91.9243 14.35 91.3993 14.525 91.0826 14.875C90.7826 15.225 90.6326 15.6583 90.6326 16.175V17.575ZM105.116 11.8V10.625C105.116 9.75833 105.191 9.03333 105.341 8.45C105.491 7.86667 105.725 7.4 106.041 7.05C106.358 6.7 106.758 6.45 107.241 6.3C107.741 6.15 108.333 6.075 109.016 6.075H111.391V8.5H109.566C108.933 8.5 108.475 8.64167 108.191 8.925C107.925 9.20833 107.791 9.725 107.791 10.475V11.8H111.441V14.35H107.791V25H105.116V14.35H103.316V11.8H105.116ZM125.916 11.8V14.35H119.366C118.216 14.35 117.375 14.6667 116.841 15.3C116.325 15.9333 116.066 16.9667 116.066 18.4C116.066 19.8333 116.325 20.8667 116.841 21.5C117.375 22.1167 118.216 22.425 119.366 22.425H125.916V25H119.116C117.35 25 115.95 24.4583 114.916 23.375C113.9 22.2917 113.391 20.6333 113.391 18.4C113.391 16.1667 113.9 14.5083 114.916 13.425C115.95 12.3417 117.35 11.8 119.116 11.8H125.916ZM136.93 11.8C138.68 11.8 140.072 12.35 141.105 13.45C142.139 14.5333 142.655 16.1833 142.655 18.4C142.655 20.6333 142.139 22.2917 141.105 23.375C140.072 24.4583 138.68 25 136.93 25H134.155C132.389 25 130.989 24.4583 129.955 23.375C128.939 22.2917 128.43 20.6333 128.43 18.4C128.43 16.1667 128.939 14.5083 129.955 13.425C130.989 12.3417 132.389 11.8 134.155 11.8H136.93ZM134.405 14.35C133.255 14.35 132.414 14.6667 131.88 15.3C131.364 15.9333 131.105 16.9667 131.105 18.4C131.105 19.8333 131.364 20.8667 131.88 21.5C132.414 22.1167 133.255 22.425 134.405 22.425H136.68C137.83 22.425 138.664 22.1167 139.18 21.5C139.714 20.8667 139.98 19.8333 139.98 18.4C139.98 16.9667 139.714 15.9333 139.18 15.3C138.664 14.6667 137.83 14.35 136.68 14.35H134.405ZM153.128 11.8C155.378 11.8 157.044 12.3083 158.128 13.325C159.228 14.325 159.778 15.7417 159.778 17.575V25H157.103V17.575C157.103 16.525 156.786 15.725 156.153 15.175C155.536 14.625 154.528 14.35 153.128 14.35H148.803C148.586 14.35 148.478 14.475 148.478 14.725V25H145.828V13.85C145.828 13.0667 145.969 12.5333 146.253 12.25C146.536 11.95 147.011 11.8 147.678 11.8H153.128Z" fill="black"/>
<path d="M73 38.125V55H70.05V38.125H73ZM84.2313 41.8C86.4813 41.8 88.1479 42.3083 89.2313 43.325C90.3313 44.325 90.8813 45.7417 90.8813 47.575V55H88.2063V47.575C88.2063 46.525 87.8896 45.725 87.2563 45.175C86.6396 44.625 85.6313 44.35 84.2313 44.35H79.9063C79.6896 44.35 79.5813 44.475 79.5813 44.725V55H76.9313V43.85C76.9313 43.0667 77.0729 42.5333 77.3563 42.25C77.6396 41.95 78.1146 41.8 78.7813 41.8H84.2313ZM101.907 41.8C104.157 41.8 105.824 42.3083 106.907 43.325C108.007 44.325 108.557 45.7417 108.557 47.575V55H105.882V47.575C105.882 46.525 105.565 45.725 104.932 45.175C104.315 44.625 103.307 44.35 101.907 44.35H97.582C97.3654 44.35 97.257 44.475 97.257 44.725V55H94.607V43.85C94.607 43.0667 94.7487 42.5333 95.032 42.25C95.3154 41.95 95.7904 41.8 96.457 41.8H101.907ZM120.158 41.8C121.908 41.8 123.299 42.35 124.333 43.45C125.366 44.5333 125.883 46.1833 125.883 48.4C125.883 50.6333 125.366 52.2917 124.333 53.375C123.299 54.4583 121.908 55 120.158 55H117.383C115.616 55 114.216 54.4583 113.183 53.375C112.166 52.2917 111.658 50.6333 111.658 48.4C111.658 46.1667 112.166 44.5083 113.183 43.425C114.216 42.3417 115.616 41.8 117.383 41.8H120.158ZM117.633 44.35C116.483 44.35 115.641 44.6667 115.108 45.3C114.591 45.9333 114.333 46.9667 114.333 48.4C114.333 49.8333 114.591 50.8667 115.108 51.5C115.641 52.1167 116.483 52.425 117.633 52.425H119.908C121.058 52.425 121.891 52.1167 122.408 51.5C122.941 50.8667 123.208 49.8333 123.208 48.4C123.208 46.9667 122.941 45.9333 122.408 45.3C121.891 44.6667 121.058 44.35 119.908 44.35H117.633ZM129.673 41.8L134.073 52.4C134.173 52.6667 134.39 52.8 134.723 52.8C135.073 52.8 135.307 52.6667 135.423 52.4L139.998 41.8H142.848L137.748 53.575C137.465 54.2083 137.073 54.6583 136.573 54.925C136.09 55.175 135.473 55.3 134.723 55.3C133.957 55.3 133.323 55.1667 132.823 54.9C132.34 54.6333 131.973 54.1917 131.723 53.575L126.873 41.8H129.673ZM153.667 41.8C154.484 41.8 155.184 41.9083 155.767 42.125C156.351 42.3417 156.826 42.65 157.192 43.05C157.576 43.4333 157.851 43.8917 158.017 44.425C158.184 44.9583 158.267 45.5333 158.267 46.15V52.35C158.267 52.8333 158.226 53.2417 158.142 53.575C158.076 53.9083 157.942 54.1833 157.742 54.4C157.542 54.6 157.259 54.75 156.892 54.85C156.542 54.95 156.092 55 155.542 55H149.367C147.801 55 146.667 54.6417 145.967 53.925C145.284 53.2083 144.942 52.225 144.942 50.975C144.942 50.375 145.017 49.8417 145.167 49.375C145.334 48.9083 145.592 48.5167 145.942 48.2C146.292 47.8667 146.751 47.6167 147.317 47.45C147.884 47.2667 148.576 47.175 149.392 47.175H155.667V46.175C155.667 45.6583 155.509 45.225 155.192 44.875C154.892 44.525 154.376 44.35 153.642 44.35H145.742V41.8H153.667ZM154.942 52.425C155.426 52.425 155.667 52.2 155.667 51.75V49.275H149.442C148.742 49.275 148.251 49.4167 147.967 49.7C147.684 49.9667 147.542 50.3417 147.542 50.825C147.542 51.3083 147.684 51.7 147.967 52C148.251 52.2833 148.726 52.425 149.392 52.425H154.942ZM162.489 41.8V38.675H165.164V41.8H168.814V44.35H165.164V50.6C165.164 51.35 165.298 51.8667 165.564 52.15C165.848 52.4333 166.306 52.575 166.939 52.575H168.764V55H166.389C165.706 55 165.114 54.925 164.614 54.775C164.131 54.625 163.731 54.375 163.414 54.025C163.098 53.675 162.864 53.2083 162.714 52.625C162.564 52.0417 162.489 51.3167 162.489 50.45V44.35H160.689V41.8H162.489ZM174.039 41.8V55H171.389V41.8H174.039ZM174.064 36.825V39.9H171.389V36.825H174.064ZM185.71 41.8C187.46 41.8 188.851 42.35 189.885 43.45C190.918 44.5333 191.435 46.1833 191.435 48.4C191.435 50.6333 190.918 52.2917 189.885 53.375C188.851 54.4583 187.46 55 185.71 55H182.935C181.168 55 179.768 54.4583 178.735 53.375C177.718 52.2917 177.21 50.6333 177.21 48.4C177.21 46.1667 177.718 44.5083 178.735 43.425C179.768 42.3417 181.168 41.8 182.935 41.8H185.71ZM183.185 44.35C182.035 44.35 181.193 44.6667 180.66 45.3C180.143 45.9333 179.885 46.9667 179.885 48.4C179.885 49.8333 180.143 50.8667 180.66 51.5C181.193 52.1167 182.035 52.425 183.185 52.425H185.46C186.61 52.425 187.443 52.1167 187.96 51.5C188.493 50.8667 188.76 49.8333 188.76 48.4C188.76 46.9667 188.493 45.9333 187.96 45.3C187.443 44.6667 186.61 44.35 185.46 44.35H183.185ZM201.907 41.8C204.157 41.8 205.824 42.3083 206.907 43.325C208.007 44.325 208.557 45.7417 208.557 47.575V55H205.882V47.575C205.882 46.525 205.565 45.725 204.932 45.175C204.315 44.625 203.307 44.35 201.907 44.35H197.582C197.365 44.35 197.257 44.475 197.257 44.725V55H194.607V43.85C194.607 43.0667 194.749 42.5333 195.032 42.25C195.315 41.95 195.79 41.8 196.457 41.8H201.907ZM223.283 41.8V44.35H215.983C215.366 44.35 214.924 44.475 214.658 44.725C214.391 44.975 214.258 45.35 214.258 45.85C214.258 46.3167 214.383 46.675 214.633 46.925C214.899 47.1583 215.399 47.275 216.133 47.275H219.233C220.149 47.275 220.899 47.375 221.483 47.575C222.083 47.775 222.549 48.0417 222.883 48.375C223.233 48.7083 223.474 49.1 223.608 49.55C223.741 50 223.808 50.4833 223.808 51C223.808 51.5833 223.724 52.125 223.558 52.625C223.408 53.1083 223.158 53.525 222.808 53.875C222.458 54.225 222.008 54.5 221.458 54.7C220.908 54.9 220.249 55 219.483 55H211.808V52.425H219.483C220.099 52.425 220.541 52.3167 220.808 52.1C221.074 51.8667 221.208 51.4917 221.208 50.975C221.208 50.4417 221.058 50.0667 220.758 49.85C220.474 49.6167 219.999 49.5 219.333 49.5H216.208C215.291 49.5 214.541 49.4 213.958 49.2C213.374 48.9833 212.908 48.7 212.558 48.35C212.224 47.9833 211.991 47.5667 211.858 47.1C211.724 46.6333 211.658 46.15 211.658 45.65C211.658 44.4667 211.991 43.5333 212.658 42.85C213.324 42.15 214.424 41.8 215.958 41.8H223.283Z" fill="#6A6A6A"/>
<path fill-rule="evenodd" clip-rule="evenodd" d="M23.6809 20.0582C20.4248 20.8733 17.4356 22.5199 15.0061 24.8375C12.5531 27.1774 10.7566 30.1195 9.7955 33.3704C9.45497 34.5223 9.22356 35.6987 9.10167 36.8843L12.7972 35.9629C12.897 35.4274 13.0245 34.896 13.1798 34.3709C13.9659 31.7117 15.4355 29.305 17.4419 27.391C18.9328 25.9688 20.6814 24.8556 22.5865 24.1066L23.6809 20.0582ZM42.8305 45.4254L46.8747 44.7193C45.8652 47.9081 44.0477 50.7824 41.5979 53.062C39.1162 55.3713 36.0723 56.9896 32.77 57.7554C30.9621 58.1747 29.1113 58.3305 27.274 58.2246L28.7137 54.7244C29.8068 54.702 30.899 54.5667 31.9727 54.3176C34.674 53.6912 37.1638 52.3674 39.1939 50.4784C40.7328 49.0464 41.9668 47.3274 42.8305 45.4254ZM26.7776 54.6456C25.7718 54.5429 24.7742 54.3438 23.7988 54.0488C21.1446 53.2462 18.7471 51.7618 16.8456 49.7435C14.944 47.7252 13.6048 45.2436 12.9616 42.5463C12.5974 41.019 12.4636 39.4528 12.5586 37.8987L9.00017 38.7859C8.99373 40.3214 9.16966 41.8586 9.52884 43.3649C10.3152 46.6624 11.9523 49.6961 14.277 52.1635C16.6016 54.6309 19.5325 56.4456 22.7774 57.4268C23.6358 57.6864 24.5082 57.8852 25.3883 58.0231L26.7776 54.6456Z" fill="url(#paint0_linear_42_16)"/>
<path fill-rule="evenodd" clip-rule="evenodd" d="M41.2299 12.0587C41.2337 12.18 41.2399 12.3008 41.2482 12.4209C41.9205 27.0509 33.6213 25.7061 32.586 25.5384C32.5324 25.5297 32.4983 25.5242 32.4858 25.5242C31.2173 25.1439 29.8728 24.9396 28.4805 24.9396C20.7885 24.9396 14.5529 31.1753 14.5529 38.8673C14.5529 46.5593 20.7885 52.7949 28.4805 52.7949C36.1725 52.7949 42.4081 46.5593 42.4081 38.8673C42.4081 36.8212 41.9669 34.8782 41.1745 33.1282L41.1792 33.1324C41.1676 33.1091 41.156 33.086 41.1447 33.0628C41.1064 32.9795 41.0673 32.8966 41.0275 32.8141C37.8369 25.7403 48.3426 22.0071 51.6474 21.457C51.8774 21.441 52.1051 21.4171 52.3304 21.3855C57.0634 20.7216 60.7052 16.6562 60.7052 11.7402C60.7052 6.36086 56.3444 2 50.965 2C45.5856 2 41.2247 6.36086 41.2247 11.7402C41.2247 11.8171 41.2256 11.8937 41.2274 11.9701L41.2247 11.9678L41.2299 12.0587ZM54.9703 16.7469C56.0261 16.7469 56.882 15.891 56.882 14.8353C56.882 13.7795 56.0261 12.9236 54.9703 12.9236C53.9146 12.9236 53.0587 13.7795 53.0587 14.8353C53.0587 15.891 53.9146 16.7469 54.9703 16.7469Z" fill="url(#paint1_linear_42_16)"/>
<path fill-rule="evenodd" clip-rule="evenodd" d="M48.0976 35.2261C50.0331 35.2261 51.6022 33.657 51.6022 31.7214C51.6022 29.7858 50.0331 28.2167 48.0976 28.2167C46.162 28.2167 44.5929 29.7858 44.5929 31.7214C44.5929 33.657 46.162 35.2261 48.0976 35.2261ZM48.0975 34.4068C48.8265 34.4068 49.4175 33.8159 49.4175 33.0869C49.4175 32.3579 48.8265 31.7669 48.0975 31.7669C47.3685 31.7669 46.7776 32.3579 46.7776 33.0869C46.7776 33.8159 47.3685 34.4068 48.0975 34.4068Z" fill="url(#paint2_linear_42_16)"/>
</g>
<defs>
<linearGradient id="paint0_linear_42_16" x1="42.3404" y1="16.7514" x2="24.0605" y2="62.4498" gradientUnits="userSpaceOnUse">
<stop stop-color="#2197D6"/>
<stop offset="0.5" stop-color="#0000A2"/>
<stop offset="0.75" stop-color="#410BB0"/>
<stop offset="1" stop-color="#8016BE"/>
</linearGradient>
<linearGradient id="paint1_linear_42_16" x1="55.1799" y1="-2.39729" x2="29.334" y2="56.8119" gradientUnits="userSpaceOnUse">
<stop stop-color="#2197D6"/>
<stop offset="0.5" stop-color="#0000A2"/>
<stop offset="0.75" stop-color="#410BB0"/>
<stop offset="1" stop-color="#8016BE"/>
</linearGradient>
<linearGradient id="paint2_linear_42_16" x1="50.7631" y1="27.6099" x2="47.4294" y2="36.0151" gradientUnits="userSpaceOnUse">
<stop stop-color="#2197D6"/>
<stop offset="0.5" stop-color="#0000A2"/>
<stop offset="0.75" stop-color="#410BB0"/>
<stop offset="1" stop-color="#8016BE"/>
</linearGradient>
<clipPath id="clip0_42_16">
<rect width="250" height="60" fill="white"/>
</clipPath>
</defs>
</svg>
