<?xml version="1.0"?>
<svg xmlns="http://www.w3.org/2000/svg" xmlns:xlink="http://www.w3.org/1999/xlink" xmlns:svgjs="http://svgjs.com/svgjs" version="1.1" width="512" height="512" x="0" y="0" viewBox="0 0 443.733 443.733" style="enable-background:new 0 0 512 512" xml:space="preserve" class=""><g>
<g xmlns="http://www.w3.org/2000/svg">
	<g>
		<path d="M187.733,0H17.067C7.641,0,0,7.641,0,17.067v170.667c0,9.426,7.641,17.067,17.067,17.067h170.667    c9.426,0,17.067-7.641,17.067-17.067V17.067C204.8,7.641,197.159,0,187.733,0z" fill="#4755ab" data-original="#000000" style="" class=""/>
	</g>
</g>
<g xmlns="http://www.w3.org/2000/svg">
	<g>
		<path d="M426.667,0H256c-9.426,0-17.067,7.641-17.067,17.067v170.667c0,9.426,7.641,17.067,17.067,17.067h170.667    c9.426,0,17.067-7.641,17.067-17.067V17.067C443.733,7.641,436.092,0,426.667,0z" fill="#4755ab" data-original="#000000" style="" class=""/>
	</g>
</g>
<g xmlns="http://www.w3.org/2000/svg">
	<g>
		<path d="M187.733,238.933H17.067C7.641,238.933,0,246.574,0,256v170.667c0,9.426,7.641,17.067,17.067,17.067h170.667    c9.426,0,17.067-7.641,17.067-17.067V256C204.8,246.574,197.159,238.933,187.733,238.933z" fill="#4755ab" data-original="#000000" style="" class=""/>
	</g>
</g>
<g xmlns="http://www.w3.org/2000/svg">
	<g>
		<path d="M426.667,238.933H256c-9.426,0-17.067,7.641-17.067,17.067v170.667c0,9.426,7.641,17.067,17.067,17.067h170.667    c9.426,0,17.067-7.641,17.067-17.067V256C443.733,246.574,436.092,238.933,426.667,238.933z" fill="#4755ab" data-original="#000000" style="" class=""/>
	</g>
</g>
<g xmlns="http://www.w3.org/2000/svg">
</g>
<g xmlns="http://www.w3.org/2000/svg">
</g>
<g xmlns="http://www.w3.org/2000/svg">
</g>
<g xmlns="http://www.w3.org/2000/svg">
</g>
<g xmlns="http://www.w3.org/2000/svg">
</g>
<g xmlns="http://www.w3.org/2000/svg">
</g>
<g xmlns="http://www.w3.org/2000/svg">
</g>
<g xmlns="http://www.w3.org/2000/svg">
</g>
<g xmlns="http://www.w3.org/2000/svg">
</g>
<g xmlns="http://www.w3.org/2000/svg">
</g>
<g xmlns="http://www.w3.org/2000/svg">
</g>
<g xmlns="http://www.w3.org/2000/svg">
</g>
<g xmlns="http://www.w3.org/2000/svg">
</g>
<g xmlns="http://www.w3.org/2000/svg">
</g>
<g xmlns="http://www.w3.org/2000/svg">
</g>
</g></svg>
