<?xml version="1.0"?>
<svg xmlns="http://www.w3.org/2000/svg" xmlns:xlink="http://www.w3.org/1999/xlink" xmlns:svgjs="http://svgjs.com/svgjs" version="1.1" width="512" height="512" x="0" y="0" viewBox="0 0 512 512" style="enable-background:new 0 0 512 512" xml:space="preserve"><g><g xmlns="http://www.w3.org/2000/svg"><path d="m362.106 70.416c-18.853 41.318-86.66 62.521-152.106 65.334v180.666c62.122 2.764 132.659 22.7 152.106 65.322 5.762 15.216 28.894 11.277 28.894-5.661v-300c0-16.93-23.129-20.881-28.894-5.661z" fill="#4755ab" data-original="#000000" style=""/><path d="m31.211 166.077h-16.211c-8.284 0-15 6.716-15 15v90c0 8.284 6.716 15 15 15h16.211c-.33-4.321-.326-115.742 0-120z" fill="#4755ab" data-original="#000000" style=""/><path d="m185.141 347.307.301-1.23c-21.619-.005-87.546.021-90.503-.027l8.12 91.355c.688 7.739 7.172 13.672 14.941 13.672h59c8.732 0 15.633-7.445 14.955-16.163z" fill="#4755ab" data-original="#000000" style=""/><path d="m497 211.077h-30c-8.284 0-15 6.716-15 15s6.716 15 15 15h30c8.284 0 15-6.716 15-15s-6.716-15-15-15z" fill="#4755ab" data-original="#000000" style=""/><path d="m443.5 149.067 25.98-15c7.175-4.142 9.633-13.316 5.49-20.49-4.143-7.175-13.316-9.632-20.49-5.49l-25.98 15c-7.175 4.142-9.633 13.316-5.49 20.49 4.155 7.197 13.336 9.62 20.49 5.49z" fill="#4755ab" data-original="#000000" style=""/><path d="m469.48 318.087-25.98-15c-7.175-4.145-16.349-1.685-20.49 5.49-4.143 7.174-1.685 16.348 5.49 20.49l25.98 15c7.143 4.125 16.33 1.715 20.49-5.49 4.143-7.175 1.685-16.348-5.49-20.49z" fill="#4755ab" data-original="#000000" style=""/><path d="m180 316.077v-180h-84c-19.299 0-35 15.701-35 35v110c0 19.299 15.701 35 35 35zm-74.5-105c0-8.284 6.716-15 15-15s15 6.716 15 15v30c0 8.284-6.716 15-15 15s-15-6.716-15-15z" fill="#4755ab" data-original="#000000" style=""/></g></g></svg>
