<?xml version="1.0"?>
<svg xmlns="http://www.w3.org/2000/svg" xmlns:xlink="http://www.w3.org/1999/xlink" xmlns:svgjs="http://svgjs.com/svgjs" version="1.1" width="512" height="512" x="0" y="0" viewBox="0 0 511.99798 511" style="enable-background:new 0 0 512 512" xml:space="preserve" class=""><g><path xmlns="http://www.w3.org/2000/svg" d="m501.894531.5h-378.246093c-12.976563 0-12.996094 20.214844 0 20.214844h368.136718v128.945312h-206.425781c-3.578125-9.65625-11.332031-17.089844-21.667969-18.816406-13.738281-2.296875-28.753906 5.589844-33.707031 18.816406h-209.769531v-128.945312h21.996094c12.976562 0 12.996093-20.214844 0-20.214844h-32.105469c-5.582031 0-10.105469 4.523438-10.105469 10.105469v149.160156c0 5.582031 4.523438 10.109375 10.105469 10.109375h220.234375l33.078125 88.390625c-8.835938-5.96875-21.78125-12.496094-33.941407-10.300781-7.746093 1.398437-13.957031 6.054687-17.957031 13.472656-11.101562 20.578125 10.179688 39.84375 22.898438 51.351562 15.910156 14.402344 25.640625 32.363282 33.089843 52.277344 7.996094 21.359375 26.746094 29.585938 43.289063 36.847656 2.023437.886719 4.046875 1.773438 6.042969 2.683594 4.949218 2.25 8.882812 6.46875 10.792968 11.566406 3.648438 9.746094 10.875 17.488282 20.34375 21.800782 9.367188 4.265625 20.160157 4.640625 29.800782 1.03125l66.128906-24.746094c11.003906-4.121094 19.742188-12.277344 24.613281-22.964844 4.851563-10.65625 5.277344-22.558594 1.207031-33.53125-1.070312-3.113281-.226562-6.636718 1.230469-12.105468 1.757813-6.589844 3.941407-14.789063.621094-23.722657l-38.878906-107.242187c-.011719-.03125-.027344-.0625-.039063-.097656-6.769531-18.09375-23-21.417969-35.210937-16.851563-3.757813 1.410156-7.273438 3.554687-10.316407 6.28125-2.855468-7.636719-6.121093-15.078125-13.421874-19.441406-6.617188-3.953125-14.683594-4.390625-21.871094-1.796875-4.210938 1.519531-8.050782 3.996094-11.253906 7.117187-4.308594-6.464843-10.957032-10.765625-18.988282-12.109375-8.40625-1.402344-17.070312.617188-23.75 5.253906l-4.925781-13.164062h208.96875c5.582031 0 10.105469-4.527344 10.105469-10.105469v-149.164062c.003906-5.582031-4.519532-10.105469-10.101563-10.105469zm-117.515625 253.824219c4.546875 12.15625 23.484375 5.085937 18.929688-7.085938l-5.738282-15.335937c-3.804687-10.28125 11.242188-23.265625 16.140626-10.277344l38.878906 107.238281c.011718.03125.023437.0625.035156.097657 1.035156 2.761718.21875 6.160156-1.199219 11.480468-1.773437 6.648438-3.976562 14.917969-.742187 24.101563.023437.058593.042968.121093.066406.183593 2.226562 5.945313 2.003906 12.402344-.628906 18.179688-2.628906 5.777344-7.355469 10.183594-13.300782 12.410156l-66.128906 24.75c-9.582031 3.582032-20.550781-1.429687-24.128906-10.992187-2.203125-5.882813-5.796875-11.21875-10.378906-15.511719-5.039063-4.71875-11.019532-7.417969-17.265625-10.160156-14.742188-6.46875-27.476563-12.058594-32.476563-25.421875-8.574218-22.910157-20.179687-43.632813-38.460937-60.175781-8.320313-7.535157-22.25-20.140626-18.671875-26.769532 5.5625-10.320312 25.183594 5.285156 30.085937 9.585938 10.144531 8.886718 17.625 20.183594 24.195313 31.0625 6.167968 10.207031 22.296875 2.398437 18.117187-8.769532l-52.53125-140.371093c-3.921875-10.476563 13.121094-16.832031 16.988281-6.496094l41.546876 111.023437c4.550781 12.152344 23.488281 5.085938 18.933593-7.085937l-19.589843-52.34375c-3.890626-10.394531 14.242187-13.835937 17.734374-4.496094l20.757813 55.460938c4.546875 12.152343 23.484375 5.085937 18.929687-7.085938l-12.714843-33.980469c-3.542969-9.460937 9.976562-23.703124 14.734375-10.984374zm0 0" fill="#1f2c91" data-original="#000000" style="" class=""/><path xmlns="http://www.w3.org/2000/svg" d="m84.648438 77.457031c0 5.945313 3.292968 11.285157 8.507812 14.132813 2.722656 1.488281 5.589844 2.667968 8.335938 4.101562 1.992187 1.042969 5.953124 2.933594 4.84375 5.847656-.847657 2.222657-4.328126 2.351563-6.285157 2.066407-3.109375-.453125-4.832031-2.59375-7.296875-4.226563-4.042968-2.664062-8.207031.421875-9.167968 4.714844-.933594 4.164062 2.21875 7.238281 5.558593 9.109375 7.59375 4.242187 18.964844 4.394531 25.839844-1.371094 7.570313-6.34375 6.96875-19.949219-.972656-25.777343-2.886719-2.117188-6.117188-3.960938-9.453125-5.269532-1.929688-.757812-5.285156-1.511718-6.019532-3.777344-1.433593-4.433593 6.292969-2.792968 8.320313-2.347656 4.875 1.078125 9.628906 3.613282 11.773437-3.0625 2.773438-8.648437-8.890624-10.300781-14.824218-10.300781-5.164063 0-9.65625 1.320313-13.347656 3.921875-3.859376 2.71875-5.8125 6.835938-5.8125 12.238281zm0 0" fill="#1f2c91" data-original="#000000" style="" class=""/><path xmlns="http://www.w3.org/2000/svg" d="m137.324219 62.496094c-3.910157-2.503906-11.527344-1.113282-11.527344 3.996094v31.507812c0 6.085938 1.769531 10.65625 5.265625 13.582031 3.785156 3.175781 8.773438 4.3125 13.621094 4.3125 4.839844 0 9.796875-1.15625 13.582031-4.308593 3.519531-2.925782 5.304687-7.496094 5.304687-13.585938v-31.507812c0-6.523438-13.785156-6.554688-13.785156 0v31.507812c0 3.371094-1.628906 5.421875-5.101562 5.421875s-5.101563-2.046875-5.101563-5.421875c0 0 0-31.230469 0-31.507812 0-1.804688-.90625-3.132813-2.257812-3.996094zm0 0" fill="#1f2c91" data-original="#000000" style="" class=""/><path xmlns="http://www.w3.org/2000/svg" d="m206.859375 75.582031c0-6.328125-2.65625-13.871093-15.304687-13.871093h-14.128907c-2.90625 0-6.203125 1.550781-6.203125 4.847656v44.140625c0 3.226562 3.410156 4.777343 6.203125 4.777343h15.300781c4.613282 0 8.363282-1.34375 11.144532-3.988281 2.804687-2.671875 4.230468-6.859375 4.230468-12.449219 0-3.308593-.050781-6.875-2.085937-9.667968-.863281-1.191406-1.992187-2.210938-3.367187-3.042969 2.796874-2.273437 4.210937-5.871094 4.210937-10.746094zm-14.65625 4.3125c-.5625.65625-1.304687.921875-2.308594 1.074219-.40625.0625-4.957031-.058594-4.957031-.171875v-6.613281h5.722656c2.488282 0 2.90625 3.183594 2.027344 4.960937-.148438.296875-.308594.542969-.484375.75zm2.109375 17.132813c0 2.996094-.402344 5.980468-3.996094 5.980468h-5.378906v-10.851562h5.378906c1.976563 0 3.996094.578125 3.996094 4.871094zm0 0" fill="#1f2c91" data-original="#000000" style="" class=""/><path xmlns="http://www.w3.org/2000/svg" d="m233.539062 102.753906c-2.347656 1.347656-5.496093 1.246094-7.859374-.003906-2.230469-1.175781-3.832032-3.347656-6.261719-4.183594-5.039063-1.730468-8.933594 5.101563-7.316407 9.324219.921876 2.410156 3.144532 4.09375 5.320313 5.3125 7.589844 4.242187 18.960937 4.394531 25.839844-1.371094 7.570312-6.34375 6.96875-19.949219-.972657-25.777343-2.710937-1.984376-5.679687-3.601563-8.738281-4.976563-1.894531-.851563-6.300781-1.90625-6.804687-4.335937-.90625-4.378907 6.648437-2.59375 8.71875-2.097657 4.773437 1.136719 9.335937 3.519531 11.445312-3.046875 2.773438-8.648437-8.890625-10.300781-14.824218-10.300781-5.164063 0-9.65625 1.316406-13.347657 3.921875-3.855469 2.71875-5.8125 6.835938-5.8125 12.238281 0 5.945313 3.292969 11.285157 8.507813 14.132813 3.1875 1.742187 6.644531 3.019531 9.746094 4.894531 1.839843 1.113281 5.738281 4.339844 2.359374 6.269531zm0 0" fill="#1f2c91" data-original="#000000" style="" class=""/><path xmlns="http://www.w3.org/2000/svg" d="m272.203125 74.183594c3.128906 0 4.507813 1.429687 4.621094 4.824218.191406 2.972657 2.808593 4.355469 5.515625 4.621094 2.042968.199219 4.550781.113282 6.257812-1.183594 1.65625-1.261718 2.011719-3.445312 2.011719-5.40625 0-4.785156-1.839844-8.601562-5.460937-11.34375-3.496094-2.644531-7.992188-3.984374-13.355469-3.984374-5.269531 0-9.625 1.453124-12.953125 4.324218-3.386719 2.925782-5.109375 7.492188-5.109375 13.570313v18.390625c0 6.078125 1.722656 10.644531 5.109375 13.570312 6.980468 6.023438 19.230468 5.796875 26.339844.105469 3.601562-2.878906 5.429687-6.851563 5.429687-11.800781 0-1.960938-.355469-4.148438-2.011719-5.40625-1.667968-1.265625-4.109375-1.367188-6.109375-1.199219-2.734375.234375-5.402343 1.589844-5.65625 4.585937-.582031 6.90625-9.3125 7.613282-9.3125.144532v-18.390625c-.003906-4.777344 2.367188-5.421875 4.683594-5.421875zm0 0" fill="#1f2c91" data-original="#000000" style="" class=""/><path xmlns="http://www.w3.org/2000/svg" d="m334.03125 78.082031c0-13.53125-10.042969-16.371093-18.472656-16.371093h-14.265625c-2.632813 0-4.828125 2.132812-4.828125 4.78125v44.140624c0 6.601563 13.789062 6.605469 13.789062 0v-15.210937h2.101563l9.023437 17.636719c1.601563 3.117187 5.394532 3.414062 8.304688 2.015625 2.722656-1.308594 6.335937-5.125 4.195312-8.359375l-7.585937-13.839844c5.136719-2.648438 7.738281-7.617188 7.738281-14.792969zm-13.785156 1.039063c0 3.160156-1.421875 4.9375-4.6875 4.9375h-5.308594v-9.875h5.308594c3.265625 0 4.6875 1.773437 4.6875 4.9375zm0 0" fill="#1f2c91" data-original="#000000" style="" class=""/><path xmlns="http://www.w3.org/2000/svg" d="m347.0625 115.476562c2.957031 0 6.890625-1.3125 6.890625-4.847656v-44.136718c0-6.53125-13.785156-6.535157-13.785156 0v44.136718c0 3.535156 3.933593 4.847656 6.894531 4.847656zm0 0" fill="#1f2c91" data-original="#000000" style="" class=""/><path xmlns="http://www.w3.org/2000/svg" d="m397.449219 75.582031c0-6.328125-2.65625-13.871093-15.304688-13.871093h-14.128906c-2.90625 0-6.203125 1.550781-6.203125 4.847656v44.140625c0 3.226562 3.410156 4.777343 6.203125 4.777343h15.300781c4.613282 0 8.363282-1.34375 11.144532-3.988281 2.804687-2.671875 4.230468-6.859375 4.230468-12.449219 0-3.308593-.050781-6.875-2.085937-9.667968-.863281-1.191406-1.992188-2.210938-3.367188-3.042969 2.796875-2.273437 4.210938-5.871094 4.210938-10.746094zm-14.53125 4.417969c-.398438.554688-.914063.796875-1.667969.796875h-5.722656v-6.613281h5.722656c2.734375 0 2.882812 4.144531 1.667969 5.816406zm1.984375 17.027344c0 2.996094-.402344 5.980468-3.996094 5.980468h-5.378906v-10.851562h5.378906c1.976562 0 3.996094.578125 3.996094 4.871094zm0 0" fill="#1f2c91" data-original="#000000" style="" class=""/><path xmlns="http://www.w3.org/2000/svg" d="m435.429688 74.183594c6.386718 0 6.429687-12.472656 0-12.472656h-24.539063c-2.90625 0-6.207031 1.550781-6.207031 4.847656v44.070312c0 3.300782 3.300781 4.847656 6.207031 4.847656h24.539063c6.433593 0 6.386718-12.46875 0-12.46875h-16.957032v-8.769531h8.820313c6.339843 0 6.296875-11.359375 0-11.359375h-8.820313v-8.695312zm0 0" fill="#1f2c91" data-original="#000000" style="" class=""/><path xmlns="http://www.w3.org/2000/svg" d="m325.847656 303.933594c2.09375 5.097656 8.121094 7.574218 13.199219 5.46875 5.089844-2.105469 7.578125-8.113282 5.46875-13.199219-2.105469-5.089844-8.117187-7.566406-13.199219-5.46875-5.082031 2.097656-7.582031 8.121094-5.46875 13.199219zm0 0" fill="#1f2c91" data-original="#000000" style="" class=""/><path xmlns="http://www.w3.org/2000/svg" d="m74.277344 14.472656c2.117187 5.082032 8.105468 7.570313 13.199218 5.464844 5.089844-2.101562 7.578126-8.113281 5.46875-13.199219-2.113281-5.085937-8.109374-7.578125-13.199218-5.46875-5.078125 2.105469-7.585938 8.121094-5.46875 13.203125zm0 0" fill="#1f2c91" data-original="#000000" style="" class=""/></g></svg>
